<?xml version="1.0" encoding="UTF-8" standalone="no"?>
<svg
  xmlns:svg="http://www.w3.org/2000/svg"
  xmlns="http://www.w3.org/2000/svg"
  xmlns:xlink="http://www.w3.org/1999/xlink"
  viewbox="0 0 96 96"
  width="96"
  height="96"
  >
  <style>
    #hair {
      fill: #bfbfbf;
      stroke: #000000;
      stroke-width: 2;
      stroke-linecap: round;
      stroke-linejoin: round;
      stroke-miterlimit: 4;
    }

    .feet,
    .eye {
      fill: #ffffff;
      fill-opacity: 1;
      stroke: #000000;
      stroke-width: 2;
      stroke-miterlimit: 4;
      stroke-dasharray: none;
      stroke-opacity: 1;
    }
  </style>

  <g id="hair">
   <path
     class="left"
     d="m 28,64 c -4,-3 -5,-11 -5,-16 0,-10 8,-19 13,-28 1,-2 3,-6 4,-9 0,-1
       1,-6 1,-4 0,11 -12,26 -13,34 -1,8 5,23 4,24 z"  />
    <path
       d="m 36,60 c -2,-3 -9,-10 -5,-22 3,-11 15,-36 15,-36 0,0 -8,32 -11,38 -2,6 2,11 5,20 z" />
    <path
       d="m 56,60 c 2,0 1,0 4,0 4,-6 3,-16 2,-21 -1,-7 -10,-17 -13,-25 -1,-5 -1,-11 -1,-11 0,0 -1,7 -0,11 0,4 5,11 9,22 3,10 1,23 -0,24 z" />
    <path
      class="right"
      d="m 64,64 c -0,0 5,-11 3,-18 -1,-6 -1,-5 -6,-13 -4,-8 -9,-19 -9,-19 0,0
        6,12 11,18 5,5 5,5 7,8 1,3 3,15 -2,24 z" />
    <path
       d="m 55,35 c -1,-3 -5,-12 -6,-15 0,0 5,14 5,19 0,4 -1,8 -2,17 l 5,3 c 2,-8 1,-19 -1,-25 z" />
    <path
       d="m 48,60 4,0 c 1,0 4,-5 4,-11 0,-5 -6,-11 -6,-16 -0,-4 2,-9 2,-9 0,0 -6,6 -5,10 0,3 4,11 4,15 -0,3 -2,7 -3,11 z" />
    <path
       d="m 40,56 c -2,-6 -5,-14 -4,-19 1,-4 7,-10 8,-13 0,-3 0,-12 0,-12 0,0 2,9 2,13 0,3 -6,10 -6,14 0,3 0,10 4,17 z" />
    <path
       d="m 46,56 -4,0 c 0,-7 2,-8 2,-13 0,-3 -3,-13 -3,-13 0,0 3,7 5,11 1,4 -0,9 -0,15 z" />
  </g>

  <g class="feet">
    <circle
      r="10"
      cx="31"
      cy="85" />
    <circle
      r="10"
      cx="65"
      cy="85" />
  </g>

  <circle
    class="eye"
    r="25"
    cx="48"
    cy="70" />

  <circle
    class="pupil"
    r="10"
    cx="48"
    cy="70" />
</svg>
