<?xml version="1.0" encoding="UTF-8" standalone="no"?>
<svg
   xmlns:dc="http://purl.org/dc/elements/1.1/"
   xmlns:cc="http://creativecommons.org/ns#"
   xmlns:rdf="http://www.w3.org/1999/02/22-rdf-syntax-ns#"
   xmlns:svg="http://www.w3.org/2000/svg"
   xmlns="http://www.w3.org/2000/svg"
   id="svg8"
   version="1.1"
   viewBox="0 0 254.00001 68.791665"
   height="260"
   width="960">
  <defs
     id="defs2" />
  <metadata
     id="metadata5">
    <rdf:RDF>
      <cc:Work
         rdf:about="">
        <dc:format>image/svg+xml</dc:format>
        <dc:type
           rdf:resource="http://purl.org/dc/dcmitype/StillImage" />
        <dc:title></dc:title>
      </cc:Work>
    </rdf:RDF>
  </metadata>
  <g
     transform="translate(-27.390297,-153.06533)"
     id="layer1">
    <rect
       y="156.65428"
       x="41.1283"
       height="25.41048"
       width="54.226479"
       id="rect945"
       style="fill:#000000;fill-opacity:1;stroke-width:0.185611" />
    <rect
       style="fill:#000000;fill-opacity:1;stroke-width:0.185611"
       id="rect945-6"
       width="54.226479"
       height="25.41048"
       x="129.01712"
       y="157.30919" />
    <rect
       y="157.04724"
       x="217.29889"
       height="25.41048"
       width="54.226479"
       id="rect945-6-0"
       style="fill:#000000;fill-opacity:1;stroke-width:0.185611" />
    <rect
       style="fill:#000000;fill-opacity:1;stroke-width:0.185611"
       id="rect945-6-0-3"
       width="54.226479"
       height="25.41048"
       x="129.80302"
       y="191.8884" />
    <path
       style="opacity:1;fill:#fdfdfd;stroke-width:0.176389;stop-opacity:1"
       d="m 31.6483,221.22744 c -1.227933,-0.33056 -1.951358,-0.78481 -2.818224,-1.76962 -1.406025,-1.59733 -1.332831,-0.74081 -1.389419,-16.25927 l -0.05036,-13.81084 0.520757,-0.52076 0.520757,-0.52076 h 125.968809 125.9688 l 0.52077,0.52076 0.52075,0.52076 -0.0504,13.81084 c -0.0479,13.1265 -0.0671,13.85454 -0.38897,14.69278 -0.45032,1.17296 -2.01253,2.73571 -3.18696,3.18807 -0.86728,0.33406 -2.91269,0.34026 -123.03125,0.37252 -106.556494,0.0286 -122.271323,-3e-5 -123.105099,-0.22448 z m 118.11227,-14.08035 c 0.49255,-0.42346 0.49491,-0.43585 0.49491,-2.60173 0,-2.12256 -0.01,-2.17764 -0.39688,-2.23261 -0.39183,-0.0556 -0.39687,-0.0306 -0.39687,1.97177 0,1.60858 -0.0573,2.08548 -0.27718,2.30532 -0.36309,0.36309 -0.53221,0.34974 -0.95754,-0.0756 -0.37521,-0.37521 -1.05834,-0.48031 -1.05834,-0.16282 0,0.10448 0.23202,0.42198 0.5156,0.70555 0.64625,0.64626 1.3918,0.67861 2.0763,0.0901 z m 2.24188,-0.46559 0.28596,-0.7147 0.90891,0.0532 c 0.86498,0.0507 0.91888,0.0831 1.11504,0.6706 0.13843,0.41461 0.33159,0.63587 0.58816,0.67372 0.21012,0.031 0.38204,-0.0212 0.38204,-0.11595 0,-0.0948 -0.38973,-1.23139 -0.86607,-2.52581 -0.77283,-2.10011 -0.91036,-2.35349 -1.27746,-2.35349 -0.3428,0 -0.47506,0.17646 -0.79319,1.05833 -0.20999,0.58209 -0.62532,1.71318 -0.92296,2.51355 l -0.54116,1.4552 h 0.41738 c 0.32319,0 0.48191,-0.16128 0.70335,-0.71469 z m 0.75873,-2.23982 c 0.15369,-0.46082 0.3054,-0.8687 0.33714,-0.90641 0.0657,-0.0781 0.36425,0.66557 0.52626,1.31106 0.10015,0.39903 0.0594,0.4332 -0.51705,0.4332 h -0.62578 z m 4.10888,1.36701 0.0882,-1.4993 0.61736,1.54217 c 0.50016,1.24941 0.68746,1.5424 0.9866,1.5434 0.30219,0.001 0.49437,-0.30886 1.05834,-1.70642 l 0.68909,-1.70765 0.0505,1.70765 c 0.0462,1.56243 0.0799,1.70765 0.39688,1.70765 0.3284,0 0.34639,-0.13338 0.34639,-2.56935 v -2.56936 l -0.45739,0.0558 c -0.40392,0.0493 -0.55185,0.28828 -1.26542,2.0444 l -0.80803,1.98858 -0.82077,-1.98858 c -0.73322,-1.77644 -0.87107,-1.99454 -1.29222,-2.0444 l -0.47145,-0.0558 v 2.58163 c 0,2.57634 8.8e-4,2.5815 0.39687,2.52525 0.36776,-0.0522 0.40335,-0.16635 0.48507,-1.55567 z"
       id="path938" />
    <path
       style="opacity:1;fill:#e48ea3;stroke-width:0.176389;stop-opacity:1"
       d="m 198.57801,185.79657 -0.43294,-0.43295 v -15.71465 -15.71464 l 0.43449,-0.4345 0.4345,-0.4345 39.12071,0.0456 39.12071,0.0456 0.88195,0.43677 c 1.12444,0.55685 2.18138,1.61378 2.73824,2.73823 l 0.43676,0.88195 0.0482,14.07094 0.0482,14.07094 -0.43706,0.43704 -0.43704,0.43705 H 239.77286 199.011 Z m 50.19067,-13.24339 c 0,-0.73623 0.0272,-0.78541 0.34119,-0.61736 0.60364,0.32306 1.33376,0.21181 1.78883,-0.27259 0.34567,-0.36796 0.42762,-0.64128 0.42762,-1.42638 0,-0.84543 -0.0641,-1.02633 -0.49491,-1.3969 -0.52268,-0.44959 -1.16198,-0.54257 -1.71085,-0.24883 -0.22091,0.11823 -0.36672,0.11823 -0.43978,0 -0.0601,-0.0973 -0.22369,-0.17687 -0.36348,-0.17687 -0.2092,0 -0.25418,0.43693 -0.25418,2.46944 0,2.35186 0.0168,2.46945 0.35278,2.46945 0.30092,0 0.35278,-0.11759 0.35278,-0.79996 z m 0.35278,-1.31671 c -0.84083,-0.84083 0.049,-2.7849 0.98783,-2.15806 0.30938,0.20659 0.59967,0.86139 0.59967,1.35272 0,0.49726 -0.5536,1.15812 -0.97014,1.15812 -0.14552,0 -0.42334,-0.15875 -0.61736,-0.35278 z m -20.28473,-0.91722 c 0,-0.98954 0.0658,-1.72376 0.14626,-1.6316 0.0804,0.0922 0.44851,0.90179 0.81792,1.79917 0.88473,2.14915 1.05872,2.14139 1.95811,-0.0874 l 0.69369,-1.71899 0.0505,1.71899 c 0.0462,1.57369 0.0798,1.71899 0.39687,1.71899 0.32842,0 0.3464,-0.13339 0.3464,-2.56991 0,-2.55203 -0.003,-2.56951 -0.39049,-2.51354 -0.31262,0.0451 -0.55007,0.43266 -1.19063,1.94319 -0.44007,1.03776 -0.84185,1.92614 -0.89284,1.97419 -0.051,0.0481 -0.45318,-0.80102 -0.89378,-1.88683 -0.6443,-1.58784 -0.87641,-1.98522 -1.18611,-2.03055 -0.38076,-0.0557 -0.38504,-0.0278 -0.38504,2.51354 0,2.16677 0.0415,2.56991 0.26458,2.56991 0.21789,0 0.26458,-0.3175 0.26458,-1.79917 z m 7.21872,1.57868 c 0.18697,-0.17639 0.24989,-0.17639 0.31455,0 0.0445,0.12127 0.19331,0.22049 0.33073,0.22049 0.19698,0 0.24989,-0.33412 0.24989,-1.5775 0,-1.43019 -0.0366,-1.60314 -0.39202,-1.85209 -0.60913,-0.42664 -1.49084,-0.34802 -2.0189,0.18002 -0.61889,0.6189 -0.29368,0.9907 0.39365,0.45004 0.60318,-0.47445 0.87055,-0.47311 1.20617,0.006 0.36159,0.51625 0.21487,0.67681 -0.61844,0.67681 -1.29112,0 -1.96928,1.19444 -1.07657,1.89618 0.15427,0.12127 0.52726,0.22049 0.82885,0.22049 0.30161,0 0.65355,-0.0992 0.78209,-0.22049 z m -1.22149,-0.57326 c -0.34193,-0.41201 0.09,-0.79375 0.89801,-0.79375 0.5694,0 0.66118,0.0496 0.57111,0.30868 -0.24402,0.70192 -1.06436,0.97278 -1.46912,0.48507 z m 3.91752,-0.65398 c 0.0488,-1.37994 0.0718,-1.45258 0.49126,-1.55114 0.50015,-0.11753 0.72253,-0.7053 0.26686,-0.7053 -0.15901,0 -0.44265,0.0822 -0.63029,0.18259 -0.2352,0.12587 -0.34119,0.12587 -0.34119,0 0,-0.10042 -0.11906,-0.18259 -0.26458,-0.18259 -0.21839,0 -0.26458,0.32338 -0.26458,1.85208 0,1.72175 0.0243,1.85209 0.34565,1.85209 0.31102,0 0.35076,-0.14498 0.39687,-1.44773 z m 2.25609,0.93299 c 0,-0.58449 0.15423,-1.07276 0.33886,-1.07276 0.0686,0 0.39237,0.35718 0.71947,0.79375 0.41254,0.55059 0.72293,0.79375 1.01323,0.79375 0.3976,0 0.37883,-0.0515 -0.37573,-1.03215 l -0.7942,-1.03214 0.69571,-0.67935 c 0.38264,-0.37364 0.69571,-0.74261 0.69571,-0.81994 0,-0.36931 -0.70434,-0.0685 -1.32291,0.56497 -0.37892,0.38805 -0.75223,0.70555 -0.82954,0.70555 -0.0773,0 -0.1406,-0.635 -0.1406,-1.41111 0,-1.13673 -0.0515,-1.41111 -0.26459,-1.41111 -0.22302,0 -0.26458,0.40177 -0.26458,2.55764 0,2.15586 0.0416,2.55764 0.26458,2.55764 0.17475,0 0.26459,-0.17479 0.26459,-0.51474 z m 5.12686,0.33214 c 0.2352,-0.12586 0.34119,-0.12586 0.34119,0 0,0.10043 0.16152,0.1826 0.35895,0.1826 0.34091,0 0.35642,-0.0908 0.30868,-1.80592 -0.0433,-1.55613 -0.093,-1.81409 -0.35895,-1.86502 -0.27045,-0.0518 -0.30868,0.0954 -0.30868,1.18856 0,1.01247 -0.0665,1.31415 -0.35278,1.60043 -0.84989,0.8499 -1.41111,0.24345 -1.41111,-1.52484 0,-1.16576 -0.0367,-1.31602 -0.30868,-1.26256 -0.47365,0.0931 -0.45146,2.76998 0.0273,3.29846 0.36373,0.40147 1.14452,0.48775 1.70404,0.18829 z"
       id="path936" />
    <path
       style="opacity:1;fill:#2df0c4;stroke-width:0.176389;stop-opacity:1"
       d="m 27.829479,185.79248 -0.437044,-0.43704 0.04819,-14.07094 0.04819,-14.07094 0.436764,-0.88195 c 0.556858,-1.12445 1.613789,-2.18138 2.738236,-2.73823 l 0.881945,-0.43677 39.120709,-0.0456 39.120711,-0.0456 0.4345,0.4345 0.4345,0.4345 v 15.71464 15.71465 l -0.43295,0.43295 -0.43296,0.43296 H 69.028393 28.266523 Z m 52.664192,-13.2393 c 0,-0.73623 0.02718,-0.78541 0.341182,-0.61736 0.382662,0.2048 1.072297,0.2383 1.503,0.073 0.682032,-0.26172 1.041899,-1.93199 0.596452,-2.76835 -0.418158,-0.78512 -1.319044,-1.06132 -2.099452,-0.64366 -0.235184,0.12587 -0.341182,0.12587 -0.341182,0 0,-0.10042 -0.15875,-0.18259 -0.352777,-0.18259 -0.335979,0 -0.352778,0.11759 -0.352778,2.46944 0,2.35186 0.01679,2.46945 0.352778,2.46945 0.300919,0 0.352777,-0.11759 0.352777,-0.79996 z m 0.59967,-1.09892 c -0.28155,-0.188 -0.59967,-0.8462 -0.59967,-1.24074 0,-0.43051 0.649764,-1.2701 0.982942,-1.2701 0.450687,0 0.957336,0.67935 0.957336,1.28367 0,0.99288 -0.713431,1.64594 -1.340608,1.22717 z m -26.264254,0.28552 c 0.315174,-0.30002 0.352778,-0.56534 0.352778,-2.48905 0,-1.91022 -0.03484,-2.16003 -0.308681,-2.21335 -0.279574,-0.0544 -0.30868,0.1312 -0.30868,1.9687 0,1.60918 -0.05733,2.08613 -0.277183,2.30599 -0.381369,0.38137 -0.910758,0.3473 -1.174863,-0.0756 -0.247022,-0.39554 -0.84101,-0.47955 -0.84101,-0.11894 0,0.26129 0.65106,0.90619 1.058333,1.04832 0.410263,0.14317 1.110289,-0.0558 1.499306,-0.42607 z m 3.27479,0.19604 c 0.235185,-0.12586 0.341182,-0.12586 0.341182,0 0,0.10043 0.15875,0.1826 0.352778,0.1826 0.32511,0 0.352778,-0.1176 0.352778,-1.49931 0,-1.26412 -0.05534,-1.55464 -0.352778,-1.85208 -0.709226,-0.70923 -2.469444,-0.26917 -2.469444,0.61736 0,0.3771 0.351714,0.32708 0.824734,-0.1173 0.346008,-0.32506 0.472378,-0.35187 0.849216,-0.18017 0.260163,0.11854 0.442716,0.34874 0.442716,0.55827 0,0.30225 -0.114924,0.35656 -0.754501,0.35656 -0.93867,0 -1.538554,0.39394 -1.538554,1.01035 0,0.92226 1.037327,1.41317 1.951873,0.92372 z m -1.025831,-0.46339 c -0.313913,-0.12667 -0.2732,-0.70715 0.05852,-0.83445 0.511997,-0.19647 1.308489,-0.11723 1.308489,0.13018 0,0.53558 -0.784038,0.93951 -1.367013,0.70427 z m 5.311896,-1.04992 c 0.740449,-1.95833 0.748394,-2.00826 0.319506,-2.00826 -0.245895,0 -0.419509,0.3118 -0.736611,1.32292 -0.228187,0.7276 -0.464664,1.32291 -0.525503,1.32291 -0.06084,0 -0.291126,-0.56047 -0.511752,-1.24549 -0.363281,-1.12795 -0.740611,-1.62155 -1.023406,-1.33875 -0.08781,0.0878 0.352843,1.491 1.019258,3.2457 0.08293,0.21836 0.300637,0.39688 0.484004,0.39688 0.259205,0 0.475791,-0.37692 0.974504,-1.69591 z m 3.122269,1.51331 c 0.235185,-0.12586 0.341182,-0.12586 0.341182,0 0,0.10043 0.15875,0.1826 0.352778,0.1826 0.325109,0 0.352778,-0.1176 0.352778,-1.49931 0,-1.26412 -0.05534,-1.55464 -0.352778,-1.85208 -0.709226,-0.70923 -2.469445,-0.26917 -2.469445,0.61736 0,0.3771 0.351715,0.32708 0.824735,-0.1173 0.346008,-0.32506 0.472378,-0.35187 0.849215,-0.18017 0.260163,0.11854 0.442717,0.34874 0.442717,0.55827 0,0.30225 -0.114924,0.35656 -0.754502,0.35656 -0.938669,0 -1.538554,0.39394 -1.538554,1.01035 0,0.92226 1.037328,1.41317 1.951874,0.92372 z m -1.025832,-0.46339 c -0.313912,-0.12667 -0.2732,-0.70715 0.05852,-0.83445 0.511997,-0.19647 1.30849,-0.11723 1.30849,0.13018 0,0.53558 -0.784038,0.93951 -1.367014,0.70427 z m 6.082473,0.29918 c 0.514239,-0.47909 0.645494,-1.00036 0.400701,-1.59134 -0.212658,-0.5134 -0.592217,-0.72591 -1.886425,-1.05615 -1.329951,-0.33936 -1.145921,-1.41543 0.242068,-1.41543 0.391123,0 0.654447,0.11577 0.802465,0.35278 0.220978,0.35384 0.84101,0.49452 0.84101,0.19082 0,-0.68996 -0.831252,-1.24915 -1.856892,-1.24915 -0.47184,0 -0.774978,0.13529 -1.155287,0.5156 -0.561088,0.56108 -0.618751,0.8289 -0.31976,1.48512 0.216202,0.47451 0.687519,0.7396 1.629003,0.91622 1.283051,0.2407 1.478296,1.32038 0.286124,1.58223 -0.547134,0.12017 -1.40541,-0.2601 -1.40541,-0.62268 0,-0.0948 -0.15875,-0.17232 -0.352778,-0.17232 -0.512789,0 -0.447984,0.60506 0.111982,1.04553 0.635394,0.4998 2.135525,0.51037 2.663199,0.0188 z m 4.023808,-0.0862 c 0.238125,-0.23812 0.432956,-0.51594 0.432956,-0.61736 0,-0.31388 -0.611107,-0.20315 -0.929212,0.16837 -0.166132,0.19403 -0.449283,0.35278 -0.629223,0.35278 -0.969569,0 -1.322164,-1.83914 -0.460798,-2.40352 0.428835,-0.28099 0.475288,-0.27645 0.978351,0.0955 0.290476,0.21476 0.65523,0.36552 0.810564,0.33502 0.519536,-0.102 -0.586014,-1.20198 -1.20807,-1.20198 -1.164795,0 -1.723256,0.61434 -1.731003,1.9042 -0.0073,1.2188 0.503438,1.79997 1.581891,1.79997 0.530948,0 0.835975,-0.11439 1.154544,-0.43296 z m 1.881031,-1.01477 c 0.04883,-1.37994 0.07184,-1.45258 0.491277,-1.55114 0.500136,-0.11753 0.722518,-0.7053 0.266846,-0.7053 -0.159011,0 -0.442644,0.0822 -0.630294,0.18259 -0.235185,0.12587 -0.341182,0.12587 -0.341182,0 0,-0.10042 -0.119063,-0.18259 -0.264583,-0.18259 -0.218387,0 -0.264584,0.32338 -0.264584,1.85208 0,1.72175 0.02432,1.85209 0.345645,1.85209 0.31103,0 0.350774,-0.14498 0.396875,-1.44773 z m 2.43248,-0.40436 c 0,-1.73449 -0.0224,-1.85208 -0.352777,-1.85208 -0.33038,0 -0.352778,0.11759 -0.352778,1.85208 0,1.73449 0.0224,1.85209 0.352778,1.85209 0.33038,0 0.352777,-0.1176 0.352777,-1.85209 z m 6.702778,1.60808 c 0,-0.13421 -0.15875,-0.28553 -0.352777,-0.33627 -0.310953,-0.0813 -0.352778,-0.24059 -0.352778,-1.34349 0,-1.13364 0.03315,-1.25123 0.352778,-1.25123 0.452517,0 0.459974,-0.35777 0.0099,-0.47547 -0.188576,-0.0493 -0.36717,-0.25935 -0.396875,-0.46675 -0.0297,-0.2074 -0.192915,-0.40357 -0.362689,-0.43593 -0.229255,-0.0437 -0.308681,0.058 -0.308681,0.39508 0,0.28587 -0.09794,0.4539 -0.264583,0.4539 -0.145521,0 -0.264584,0.11057 -0.264584,0.24571 0,0.13514 0.119063,0.2914 0.264584,0.34724 0.201893,0.0775 0.264583,0.40794 0.264583,1.39471 0,0.77062 0.08553,1.37871 0.211667,1.50484 0.296596,0.2966 1.199444,0.27225 1.199444,-0.0323 z m -6.759734,-4.27171 c 0.111358,-0.2902 -0.256548,-0.64465 -0.507885,-0.48932 -0.07739,0.0478 -0.140714,0.24103 -0.140714,0.42934 0,0.41271 0.495654,0.45855 0.648599,0.06 z"
       id="path934" />
    <path
       style="opacity:1;fill:#fa8730;stroke-width:0.176389;stop-opacity:1"
       d="m 113.20579,185.79657 -0.43295,-0.43295 v -15.71465 -15.71464 l 0.43295,-0.43296 0.43296,-0.43295 h 40.76187 40.76187 l 0.43296,0.43295 0.43295,0.43296 v 15.71464 15.71465 l -0.43295,0.43295 -0.43296,0.43296 h -40.76187 -40.76187 z m 35.06847,-14.38371 c 0.27588,-0.70232 0.28153,-0.70555 1.23355,-0.70555 h 0.95641 l 0.21139,0.70555 c 0.15317,0.51124 0.3066,0.70556 0.55709,0.70556 0.4991,0 0.54715,0.18839 -1.00091,-3.92466 -0.6855,-1.8213 -0.89354,-1.68672 -1.98102,1.28142 -0.49814,1.35963 -0.90571,2.51056 -0.90571,2.55764 0,0.0471 0.14671,0.0856 0.32602,0.0856 0.21658,0 0.41907,-0.23686 0.60318,-0.70556 z m 0.53866,-1.48094 c 0.052,-0.13543 0.19208,-0.57199 0.31137,-0.97014 0.11929,-0.39816 0.27624,-0.72392 0.34878,-0.72392 0.12331,0 0.69422,1.47642 0.69422,1.79531 0,0.0797 -0.326,0.14497 -0.72443,0.14497 -0.54746,0 -0.70135,-0.0602 -0.62994,-0.24622 z m 4.35298,1.30455 v -0.88194 h 0.71715 c 1.25747,0 1.91387,-0.55356 1.92307,-1.62176 0.004,-0.43173 -0.13135,-0.81085 -0.40026,-1.12347 -0.35116,-0.40825 -0.57702,-0.4841 -1.67569,-0.56271 l -1.26983,-0.0909 v 2.58134 c 0,2.46374 0.0161,2.58134 0.35278,2.58134 0.30574,0 0.35278,-0.1176 0.35278,-0.88195 z m 0,-2.55764 v -0.97014 h 0.69295 c 0.78947,0 1.24732,0.35611 1.24732,0.97014 0,0.61403 -0.45785,0.97014 -1.24732,0.97014 h -0.69295 z m 4.23333,0.86902 c 0,-2.35314 -0.0261,-2.56557 -0.30868,-2.51134 -0.27395,0.0526 -0.31419,0.34181 -0.35762,2.57057 -0.0472,2.42117 -0.0361,2.51134 0.30868,2.51134 0.34287,0 0.35762,-0.10599 0.35762,-2.57057 z m 3.49452,2.21092 c 0.74141,-0.69074 0.38,-1.42617 -0.86571,-1.7616 -0.75208,-0.20252 -1.0768,-0.63497 -0.67014,-0.89246 0.38587,-0.24433 0.66574,-0.19034 0.99267,0.19148 0.38411,0.4486 0.75283,0.4535 0.75283,0.01 0,-0.45296 -0.65111,-0.89195 -1.32292,-0.89195 -0.77279,0 -1.32292,0.44257 -1.32292,1.06427 0,0.57749 0.44013,0.94405 1.36499,1.13685 0.68035,0.14182 0.85919,0.36723 0.56888,0.71702 -0.28013,0.33754 -0.85871,0.32676 -1.2454,-0.0232 -0.17019,-0.15403 -0.44198,-0.25325 -0.60398,-0.22049 -0.26046,0.0527 -0.25029,0.11567 0.0879,0.54463 0.48985,0.62136 1.6618,0.68628 2.26382,0.12542 z"
       id="path932" />
  </g>
</svg>
